<svg width="204" height="60" viewBox="0 0 204 60" fill="none" xmlns="http://www.w3.org/2000/svg">
<path d="M0 13.186C0 13.186 25.5112 27.3083 30 49.2329C30 49.2329 36.0598 25.2016 60 13.3421C60 13.3421 54.8379 26.6841 52.3691 44.4734C52.3691 44.4734 37.8554 45.4877 29.8504 60.0001C29.8504 60.0001 24.6883 46.9702 8.00499 44.5514C8.0798 44.6295 4.48878 22.8609 0 13.186Z" fill="#84CB74"/>
<path d="M58.953 9.05076C42.1949 16.619 30.1501 40.2601 30.1501 40.2601C25.2124 23.4071 1.42188 8.66064 1.42188 8.66064C1.42188 8.66064 20.0503 13.9662 30.1501 27.3082C30.1501 27.3082 39.2024 14.1223 58.953 9.05076Z" fill="#FD1A5A"/>
<path d="M44.888 5.69571L30.1499 0L15.3369 5.85176L22.2197 7.80234V10.7672C22.2197 10.9233 22.2197 11.0013 22.2197 11.1573C22.1449 15.6827 25.6611 19.3498 30.0751 19.4278C34.489 19.5059 38.0801 15.9168 38.1549 11.4694C38.1549 11.1573 38.1549 10.8453 38.0801 10.5332V7.88036L42.3444 6.55397V11.4694H43.1673V6.3199L44.888 5.69571Z" fill="#FD1A5A"/>
<path d="M67.52 40L83.072 6.16H89.072L104.624 40H97.136L93.968 32.656H78.176L75.056 40H67.52ZM86 14.08L80.672 26.848H91.52L86.096 14.08H86ZM115.858 40.528C113.81 40.528 112.002 40.032 110.434 39.04C108.898 38.016 107.698 36.592 106.834 34.768C105.97 32.912 105.538 30.72 105.538 28.192C105.538 25.664 105.97 23.488 106.834 21.664C107.698 19.84 108.898 18.432 110.434 17.44C112.002 16.448 113.81 15.952 115.858 15.952C117.426 15.952 118.866 16.288 120.178 16.96C121.49 17.632 122.482 18.528 123.154 19.648V6.16H130.402V40H123.298V36.448C122.658 37.696 121.666 38.688 120.322 39.424C119.01 40.16 117.522 40.528 115.858 40.528ZM118.018 35.104C119.554 35.104 120.802 34.544 121.762 33.424C122.754 32.304 123.25 30.56 123.25 28.192C123.25 25.856 122.754 24.144 121.762 23.056C120.802 21.936 119.554 21.376 118.018 21.376C116.482 21.376 115.234 21.936 114.274 23.056C113.314 24.144 112.834 25.856 112.834 28.192C112.834 30.56 113.314 32.304 114.274 33.424C115.234 34.544 116.482 35.104 118.018 35.104ZM144.675 40.528C141.667 40.528 139.443 39.696 138.003 38.032C136.595 36.368 135.891 33.872 135.891 30.544V16.432H143.139V30.736C143.139 33.52 144.339 34.912 146.739 34.912C148.115 34.912 149.235 34.432 150.099 33.472C150.995 32.48 151.443 31.184 151.443 29.584V16.432H158.691V40H151.635V36.784C150.067 39.28 147.747 40.528 144.675 40.528ZM164.3 40V6.16H171.548V26.176H171.644L180.332 16.432H188.924L178.94 27.712L189.404 40H180.668L171.644 29.824H171.548V40H164.3Z" fill="white"/>
<rect x="194" y="16" width="7" height="24" fill="#FD1A5A"/>
<path d="M65.98 56.11C65.2867 56.11 64.6767 55.96 64.15 55.66C63.63 55.3533 63.2233 54.93 62.93 54.39C62.6433 53.8433 62.5 53.2033 62.5 52.47C62.5 51.7367 62.6433 51.1 62.93 50.56C63.2233 50.0133 63.63 49.59 64.15 49.29C64.67 48.99 65.28 48.84 65.98 48.84C66.68 48.84 67.29 48.99 67.81 49.29C68.3367 49.59 68.7433 50.0133 69.03 50.56C69.3233 51.1 69.47 51.7333 69.47 52.46C69.47 53.1933 69.3233 53.8333 69.03 54.38C68.7433 54.9267 68.3367 55.3533 67.81 55.66C67.29 55.96 66.68 56.11 65.98 56.11ZM65.98 54.79C66.5667 54.79 67.0233 54.5867 67.35 54.18C67.6833 53.7667 67.85 53.1967 67.85 52.47C67.85 51.7367 67.6867 51.17 67.36 50.77C67.0333 50.3633 66.5733 50.16 65.98 50.16C65.4 50.16 64.9433 50.3633 64.61 50.77C64.2833 51.17 64.12 51.7367 64.12 52.47C64.12 53.1967 64.2833 53.7667 64.61 54.18C64.9433 54.5867 65.4 54.79 65.98 54.79ZM70.669 56V48.95H71.819L75.339 53.44V48.95H76.779V56H75.639L72.109 51.5V56H70.669ZM78.1983 56V48.95H79.7483V54.69H83.0083V56H78.1983ZM83.9307 56V48.95H85.4807V56H83.9307ZM86.8897 56V48.95H88.0397L91.5597 53.44V48.95H92.9997V56H91.8597L88.3297 51.5V56H86.8897ZM94.419 56V48.95H99.249V50.16H95.899V51.81H99.029V53.03H95.899V54.79H99.249V56H94.419ZM102.447 56L105.687 48.95H106.937L110.177 56H108.617L107.957 54.47H104.667L104.017 56H102.447ZM106.297 50.6L105.187 53.26H107.447L106.317 50.6H106.297ZM114.04 56.11C113.28 56.11 112.63 55.96 112.09 55.66C111.55 55.36 111.133 54.94 110.84 54.4C110.553 53.8533 110.41 53.21 110.41 52.47C110.41 51.7367 110.553 51.1 110.84 50.56C111.133 50.0133 111.55 49.59 112.09 49.29C112.63 48.99 113.28 48.84 114.04 48.84C114.507 48.84 114.953 48.9133 115.38 49.06C115.807 49.2067 116.157 49.4067 116.43 49.66L115.95 50.89C115.65 50.6567 115.347 50.4867 115.04 50.38C114.74 50.2667 114.423 50.21 114.09 50.21C113.417 50.21 112.907 50.4067 112.56 50.8C112.22 51.1867 112.05 51.7433 112.05 52.47C112.05 53.1967 112.22 53.7567 112.56 54.15C112.907 54.5433 113.417 54.74 114.09 54.74C114.423 54.74 114.74 54.6867 115.04 54.58C115.347 54.4667 115.65 54.2933 115.95 54.06L116.43 55.29C116.157 55.5367 115.807 55.7367 115.38 55.89C114.953 56.0367 114.507 56.11 114.04 56.11ZM116.509 56L119.749 48.95H120.999L124.239 56H122.679L122.019 54.47H118.729L118.079 56H116.509ZM120.359 50.6L119.249 53.26H121.509L120.379 50.6H120.359ZM124.849 56V48.95H127.609C128.809 48.95 129.739 49.2567 130.399 49.87C131.059 50.4767 131.389 51.3433 131.389 52.47C131.389 53.5967 131.059 54.4667 130.399 55.08C129.739 55.6933 128.809 56 127.609 56H124.849ZM126.399 54.73H127.519C129.019 54.73 129.769 53.9767 129.769 52.47C129.769 50.97 129.019 50.22 127.519 50.22H126.399V54.73ZM132.593 56V48.95H137.423V50.16H134.073V51.81H137.203V53.03H134.073V54.79H137.423V56H132.593ZM138.668 56V48.95H139.958L142.338 53.28L144.708 48.95H145.978V56H144.568V51.7L142.748 54.94H141.878L140.068 51.73V56H138.668ZM149.077 56V52.82L146.357 48.95H148.157L149.877 51.43L151.597 48.95H153.327L150.627 52.83V56H149.077ZM159.919 56.11C159.159 56.11 158.509 55.96 157.969 55.66C157.429 55.36 157.012 54.94 156.719 54.4C156.432 53.8533 156.289 53.21 156.289 52.47C156.289 51.7367 156.432 51.1 156.719 50.56C157.012 50.0133 157.429 49.59 157.969 49.29C158.509 48.99 159.159 48.84 159.919 48.84C160.386 48.84 160.832 48.9133 161.259 49.06C161.686 49.2067 162.036 49.4067 162.309 49.66L161.829 50.89C161.529 50.6567 161.226 50.4867 160.919 50.38C160.619 50.2667 160.302 50.21 159.969 50.21C159.296 50.21 158.786 50.4067 158.439 50.8C158.099 51.1867 157.929 51.7433 157.929 52.47C157.929 53.1967 158.099 53.7567 158.439 54.15C158.786 54.5433 159.296 54.74 159.969 54.74C160.302 54.74 160.619 54.6867 160.919 54.58C161.226 54.4667 161.529 54.2933 161.829 54.06L162.309 55.29C162.036 55.5367 161.686 55.7367 161.259 55.89C160.832 56.0367 160.386 56.11 159.919 56.11ZM166.351 56.11C165.658 56.11 165.048 55.96 164.521 55.66C164.001 55.3533 163.594 54.93 163.301 54.39C163.014 53.8433 162.871 53.2033 162.871 52.47C162.871 51.7367 163.014 51.1 163.301 50.56C163.594 50.0133 164.001 49.59 164.521 49.29C165.041 48.99 165.651 48.84 166.351 48.84C167.051 48.84 167.661 48.99 168.181 49.29C168.708 49.59 169.114 50.0133 169.401 50.56C169.694 51.1 169.841 51.7333 169.841 52.46C169.841 53.1933 169.694 53.8333 169.401 54.38C169.114 54.9267 168.708 55.3533 168.181 55.66C167.661 55.96 167.051 56.11 166.351 56.11ZM166.351 54.79C166.938 54.79 167.394 54.5867 167.721 54.18C168.054 53.7667 168.221 53.1967 168.221 52.47C168.221 51.7367 168.058 51.17 167.731 50.77C167.404 50.3633 166.944 50.16 166.351 50.16C165.771 50.16 165.314 50.3633 164.981 50.77C164.654 51.17 164.491 51.7367 164.491 52.47C164.491 53.1967 164.654 53.7667 164.981 54.18C165.314 54.5867 165.771 54.79 166.351 54.79ZM174.06 56.11C173.06 56.11 172.297 55.8533 171.77 55.34C171.25 54.8267 170.99 54.0633 170.99 53.05V48.95H172.54V53.06C172.54 53.6333 172.67 54.0667 172.93 54.36C173.19 54.6467 173.567 54.79 174.06 54.79C175.067 54.79 175.57 54.2133 175.57 53.06V48.95H177.1V53.05C177.1 54.0633 176.843 54.8267 176.33 55.34C175.817 55.8533 175.06 56.11 174.06 56.11ZM178.472 56V48.95H181.692C182.478 48.95 183.085 49.14 183.512 49.52C183.938 49.9 184.152 50.43 184.152 51.11C184.152 51.6367 184.015 52.0767 183.742 52.43C183.475 52.7767 183.092 53.0133 182.592 53.14C182.945 53.2467 183.235 53.5033 183.462 53.91L184.602 56H182.892L181.672 53.75C181.572 53.57 181.448 53.4467 181.302 53.38C181.155 53.3067 180.982 53.27 180.782 53.27H180.022V56H178.472ZM180.022 52.15H181.412C182.245 52.15 182.662 51.8167 182.662 51.15C182.662 50.49 182.245 50.16 181.412 50.16H180.022V52.15ZM187.925 56.11C187.372 56.11 186.849 56.04 186.355 55.9C185.869 55.76 185.462 55.57 185.135 55.33L185.585 54.11C185.899 54.33 186.255 54.5033 186.655 54.63C187.062 54.7567 187.485 54.82 187.925 54.82C188.405 54.82 188.749 54.7467 188.955 54.6C189.169 54.4467 189.275 54.2567 189.275 54.03C189.275 53.8367 189.202 53.6833 189.055 53.57C188.909 53.4567 188.652 53.36 188.285 53.28L187.155 53.04C185.895 52.7733 185.265 52.12 185.265 51.08C185.265 50.6333 185.385 50.2433 185.625 49.91C185.865 49.57 186.199 49.3067 186.625 49.12C187.059 48.9333 187.559 48.84 188.125 48.84C188.612 48.84 189.069 48.91 189.495 49.05C189.922 49.19 190.275 49.3867 190.555 49.64L190.105 50.78C189.559 50.3467 188.895 50.13 188.115 50.13C187.695 50.13 187.369 50.2133 187.135 50.38C186.909 50.54 186.795 50.75 186.795 51.01C186.795 51.2033 186.865 51.36 187.005 51.48C187.145 51.6 187.389 51.6967 187.735 51.77L188.865 52.01C190.159 52.29 190.805 52.9233 190.805 53.91C190.805 54.35 190.685 54.7367 190.445 55.07C190.212 55.3967 189.879 55.6533 189.445 55.84C189.019 56.02 188.512 56.11 187.925 56.11ZM191.812 56V48.95H196.642V50.16H193.292V51.81H196.422V53.03H193.292V54.79H196.642V56H191.812ZM200.289 56.11C199.735 56.11 199.212 56.04 198.719 55.9C198.232 55.76 197.825 55.57 197.499 55.33L197.949 54.11C198.262 54.33 198.619 54.5033 199.019 54.63C199.425 54.7567 199.849 54.82 200.289 54.82C200.769 54.82 201.112 54.7467 201.319 54.6C201.532 54.4467 201.639 54.2567 201.639 54.03C201.639 53.8367 201.565 53.6833 201.419 53.57C201.272 53.4567 201.015 53.36 200.649 53.28L199.519 53.04C198.259 52.7733 197.629 52.12 197.629 51.08C197.629 50.6333 197.749 50.2433 197.989 49.91C198.229 49.57 198.562 49.3067 198.989 49.12C199.422 48.9333 199.922 48.84 200.489 48.84C200.975 48.84 201.432 48.91 201.859 49.05C202.285 49.19 202.639 49.3867 202.919 49.64L202.469 50.78C201.922 50.3467 201.259 50.13 200.479 50.13C200.059 50.13 199.732 50.2133 199.499 50.38C199.272 50.54 199.159 50.75 199.159 51.01C199.159 51.2033 199.229 51.36 199.369 51.48C199.509 51.6 199.752 51.6967 200.099 51.77L201.229 52.01C202.522 52.29 203.169 52.9233 203.169 53.91C203.169 54.35 203.049 54.7367 202.809 55.07C202.575 55.3967 202.242 55.6533 201.809 55.84C201.382 56.02 200.875 56.11 200.289 56.11Z" fill="#84CB74"/>
<path d="M197.485 5C197.32 5 197.158 5.025 197.003 5.0732L191.306 6.88177C191.113 6.94426 190.985 7.10494 190.985 7.28527C190.985 7.46559 191.113 7.62627 191.306 7.68876L192.482 8.0619C192.149 8.52252 191.96 9.06706 191.96 9.64016V10.1418C191.96 10.6489 191.74 11.172 191.507 11.5844C191.375 11.8165 191.224 12.045 191.05 12.2557C190.985 12.3325 190.966 12.4325 191.003 12.5235C191.04 12.6146 191.125 12.6824 191.23 12.7056L192.53 12.9913C192.616 13.0109 192.707 12.9966 192.782 12.9556C192.857 12.9145 192.91 12.8467 192.927 12.7699C193.101 12.0058 193.014 11.3202 192.884 10.8292C192.819 10.5757 192.732 10.3168 192.61 10.0794V9.64016C192.61 9.10098 192.817 8.59215 193.176 8.18509C193.438 7.90836 193.778 7.68519 194.176 7.54771L197.365 6.44615C197.531 6.38901 197.72 6.46043 197.785 6.60683C197.85 6.75323 197.769 6.91927 197.602 6.9764L194.413 8.07797C194.161 8.16545 193.94 8.29935 193.759 8.46361L197.001 9.49198C197.155 9.54018 197.318 9.56518 197.482 9.56518C197.647 9.56518 197.81 9.54018 197.964 9.49198L203.663 7.68876C203.856 7.62806 203.984 7.46559 203.984 7.28527C203.984 7.10494 203.856 6.94426 203.663 6.88177L197.966 5.0732C197.812 5.025 197.649 5 197.485 5ZM193.585 11.713C193.585 12.3432 195.331 12.9984 197.485 12.9984C199.638 12.9984 201.384 12.3432 201.384 11.713L201.074 9.11705L198.185 10.0347C197.96 10.1061 197.722 10.1418 197.485 10.1418C197.247 10.1418 197.007 10.1061 196.784 10.0347L193.895 9.11705L193.585 11.713Z" fill="#FD1A5A"/>
</svg>
